<?xml version="1.0" standalone="no"?>
<!DOCTYPE svg PUBLIC "-//W3C//DTD SVG 20010904//EN"
 "http://www.w3.org/TR/2001/REC-SVG-20010904/DTD/svg10.dtd">
<svg version="1.0" xmlns="http://www.w3.org/2000/svg"
 width="729.000000pt" height="1280.000000pt" viewBox="0 0 729.000000 1280.000000"
 preserveAspectRatio="xMidYMid meet">
<g transform="translate(0.000000,1280.000000) scale(0.100000,-0.100000)"
fill="#000000" stroke="none">
<path d="M3532 12320 c-98 -60 -163 -294 -149 -535 9 -144 25 -206 122 -495
47 -140 89 -262 91 -271 4 -12 -3 -18 -27 -23 -74 -14 -138 -85 -153 -166 -10
-60 18 -133 69 -178 l45 -39 -123 -12 c-284 -29 -518 -100 -782 -238 -430
-224 -796 -633 -971 -1084 -46 -119 -94 -276 -94 -311 0 -15 -5 -39 -11 -54
-15 -41 -39 -218 -39 -294 0 -37 -4 -70 -10 -76 -5 -5 -10 -24 -12 -42 -1 -17
-6 -32 -10 -32 -5 0 -14 -11 -20 -25 -9 -20 -8 -28 6 -44 17 -18 16 -19 -3
-26 -31 -10 -61 -54 -61 -90 0 -37 31 -82 66 -95 l24 -9 -6 -308 c-5 -265 -8
-309 -22 -318 -40 -26 -62 -59 -62 -95 0 -41 29 -86 64 -100 21 -8 21 -8 1
-15 -75 -28 -129 -109 -128 -190 1 -96 61 -172 155 -195 l48 -12 -26 -31 c-48
-57 -17 -141 57 -156 30 -6 35 -12 41 -46 9 -53 10 -257 0 -271 -4 -7 -24 -19
-45 -28 -74 -30 -84 -134 -16 -175 l28 -17 -34 -13 c-144 -52 -180 -233 -69
-338 l36 -33 -19 -32 c-10 -17 -38 -46 -63 -63 -25 -17 -46 -39 -48 -48 -3
-14 2 -13 37 4 28 13 49 35 73 74 31 53 49 64 75 47 20 -13 -67 -145 -155
-237 -43 -43 -68 -72 -57 -63 11 9 41 26 67 37 39 16 56 33 95 91 53 81 66 77
32 -8 -33 -84 -56 -119 -128 -198 -36 -39 -75 -87 -85 -105 -16 -28 -10 -25
33 21 42 44 47 47 23 15 -17 -23 -81 -92 -144 -155 -123 -125 -254 -302 -218
-295 11 2 26 7 33 11 7 5 6 0 -3 -11 -14 -17 -14 -18 10 -5 22 11 20 7 -10
-25 -34 -37 -33 -37 30 11 36 26 110 91 165 144 55 52 93 86 85 75 -45 -62
-103 -130 -174 -204 -45 -46 -76 -81 -69 -77 6 3 15 1 18 -4 5 -8 14 -5 28 7
12 10 8 2 -9 -17 -46 -51 -104 -130 -104 -141 0 -6 25 17 55 49 38 41 64 61
85 64 l29 4 -41 -35 c-23 -20 -49 -44 -58 -54 -8 -10 -30 -35 -48 -55 -46 -50
-75 -92 -64 -92 5 0 17 9 27 20 10 11 15 20 12 20 -4 0 30 35 76 77 78 73 273
210 284 199 3 -2 -35 -46 -84 -97 -48 -51 -82 -89 -76 -85 8 4 13 2 13 -5 0
-8 4 -8 15 1 9 7 18 11 20 8 3 -2 -23 -24 -58 -48 -87 -61 -184 -147 -224
-199 -18 -24 -31 -46 -29 -48 2 -2 30 22 62 53 103 99 299 246 254 189 -14
-17 -14 -18 8 -6 12 7 20 17 16 23 -4 7 -3 8 4 4 8 -5 9 -13 2 -25 -12 -24 17
-52 47 -46 17 3 20 0 16 -12 -5 -12 -3 -14 8 -8 10 5 11 5 4 -3 -5 -6 -70 -49
-143 -95 -146 -93 -257 -175 -248 -184 3 -3 29 11 57 32 62 44 380 232 362
214 -18 -18 -16 -34 1 -20 12 10 14 9 12 -4 -3 -18 -157 -131 -276 -201 -71
-42 -209 -156 -165 -136 11 5 33 12 50 16 l30 8 -30 -23 c-84 -64 -165 -132
-161 -136 3 -3 26 13 53 36 46 40 133 97 133 88 0 -3 -38 -37 -85 -78 -82 -70
-116 -112 -55 -69 28 20 30 20 49 3 16 -13 18 -20 8 -31 -9 -12 -5 -12 20 2
56 28 28 -6 -40 -49 -34 -22 -105 -82 -158 -135 -75 -74 -106 -114 -142 -182
-26 -48 -47 -91 -47 -94 0 -3 20 20 44 52 96 130 326 327 326 281 0 -8 -18
-28 -39 -45 -22 -17 -49 -46 -61 -63 -22 -30 -21 -29 31 10 30 23 56 41 59 41
3 0 6 -24 7 -54 l3 -54 -55 -41 c-30 -23 -55 -44 -55 -48 0 -3 15 6 33 19 17
14 42 30 54 37 21 10 23 9 20 -8 -2 -11 -7 -24 -12 -28 -4 -5 -5 -2 -1 5 14
23 -7 12 -70 -40 -70 -56 -78 -73 -17 -35 60 38 103 58 103 49 0 -5 -17 -18
-38 -30 -20 -12 -50 -33 -67 -47 -23 -19 -16 -17 29 10 33 19 63 35 68 35 4 0
8 -20 8 -44 0 -42 -3 -46 -64 -95 -74 -59 -170 -160 -191 -202 -23 -43 -5 -34
39 19 44 54 167 164 205 184 14 7 52 28 84 45 70 39 71 22 3 -24 -51 -35 -54
-43 -6 -18 17 9 30 13 30 11 0 -10 -49 -101 -54 -99 -7 2 -90 -71 -164 -144
-43 -43 -74 -86 -97 -135 -46 -96 -44 -122 3 -34 40 76 165 212 220 240 31 16
33 16 39 -1 4 -10 11 -21 16 -24 4 -3 1 -13 -7 -22 -9 -8 -16 -19 -16 -23 0
-4 -28 -35 -63 -68 -34 -34 -71 -77 -81 -96 -16 -29 -11 -26 32 22 29 31 76
71 105 89 28 18 63 43 76 56 13 12 27 20 32 18 4 -3 15 7 23 22 l15 28 1 -37
c0 -54 -49 -104 -170 -173 -111 -62 -133 -82 -40 -35 71 36 87 38 66 8 -33
-47 -13 -39 48 20 65 63 86 74 86 47 0 -15 -52 -70 -131 -138 -28 -25 -33 -31
-12 -18 17 12 33 21 36 21 3 0 -9 -26 -25 -57 l-31 -58 39 44 c21 25 51 61 65
80 14 20 33 42 42 50 15 12 17 10 17 -20 0 -28 -10 -42 -57 -86 -31 -29 -54
-55 -52 -58 3 -2 23 13 44 35 22 22 42 40 46 40 18 0 2 -48 -28 -88 -18 -24
-33 -51 -33 -60 1 -12 7 -8 23 13 27 37 69 77 74 71 2 -2 -9 -39 -26 -82 -17
-43 -29 -79 -27 -81 1 -1 19 31 39 72 38 77 56 100 33 42 -12 -30 -28 -117
-21 -117 2 0 16 28 33 63 16 34 39 73 50 87 20 23 21 23 21 5 0 -11 -11 -47
-25 -80 -34 -80 -38 -96 -19 -62 22 38 28 29 16 -24 -17 -71 -12 -102 6 -46
20 59 27 55 13 -8 -12 -52 -6 -72 9 -34 9 22 10 21 10 -13 1 -50 15 -48 32 4
13 42 13 42 16 13 6 -57 34 -220 39 -224 3 -3 2 49 -2 115 -4 79 -3 123 3 127
11 7 28 -28 39 -78 12 -62 46 -155 55 -155 6 0 8 8 5 18 -9 31 -18 132 -12
132 3 0 21 -30 40 -67 19 -38 35 -59 36 -49 0 20 0 20 15 0 14 -18 14 -17 5 9
-25 71 -1 62 35 -13 15 -32 33 -57 38 -53 6 3 5 8 -1 12 -9 5 -26 41 -53 109
-5 12 -5 22 -1 22 4 0 15 -20 25 -45 11 -25 23 -42 28 -39 6 3 17 24 26 47 9
22 18 36 20 30 2 -5 -6 -31 -17 -58 -27 -64 -18 -69 15 -8 l26 48 -5 -40 c-4
-32 -3 -36 6 -21 8 15 12 16 19 5 6 -10 16 4 36 49 30 70 46 63 32 -12 -21
-108 -3 -110 29 -4 12 40 27 93 34 116 22 74 33 46 30 -73 -2 -60 -1 -107 2
-104 9 9 37 201 32 215 -3 8 -2 14 3 14 4 0 14 -19 21 -42 l13 -43 10 35 c9
34 10 34 18 11 5 -13 11 -22 13 -20 5 5 -9 85 -20 114 -14 39 5 9 25 -40 24
-55 23 -60 6 63 l-6 37 16 -27 c9 -16 18 -28 20 -28 5 0 -5 27 -34 90 -11 25
-21 56 -20 70 0 25 0 25 15 5 9 -11 32 -51 51 -90 l34 -70 -5 52 c-3 29 -10
62 -16 74 -7 11 -10 23 -7 25 2 3 23 -34 45 -81 23 -47 44 -85 47 -85 3 0 -1
12 -9 28 -23 46 -67 178 -52 160 7 -10 18 -18 25 -18 6 0 11 -3 11 -7 1 -13
59 -79 60 -67 0 7 -16 36 -35 65 -20 29 -35 61 -33 71 2 15 15 7 68 -39 71
-64 44 -24 -32 46 -39 36 -48 50 -48 78 0 42 9 38 59 -30 21 -29 51 -65 66
-82 l28 -30 -27 49 c-14 27 -25 50 -23 52 2 2 21 -8 43 -23 l39 -26 -23 25
c-13 14 -45 40 -70 58 -26 18 -57 45 -69 60 -66 81 -20 81 59 0 55 -56 77 -62
42 -12 l-16 23 39 -16 c21 -9 57 -27 81 -40 23 -13 40 -20 37 -14 -4 5 -29 21
-58 35 -77 40 -127 73 -174 118 -35 33 -43 47 -43 76 l0 35 20 -25 c11 -14 20
-21 20 -16 0 6 12 -2 27 -16 16 -14 54 -42 86 -63 31 -20 76 -58 98 -83 24
-27 36 -36 29 -22 -7 14 -42 55 -77 91 -34 36 -63 70 -63 75 0 5 -9 15 -20 22
-12 7 -18 17 -15 22 4 6 11 8 16 5 5 -4 9 3 9 13 0 38 43 11 140 -87 64 -65
106 -117 129 -161 42 -81 32 -32 -12 58 -17 36 -54 88 -82 116 -65 66 -164
154 -169 149 -5 -5 -56 83 -56 97 0 7 12 5 32 -5 l33 -16 -25 20 c-14 11 -32
23 -42 26 -9 3 -19 13 -22 21 -8 21 8 15 104 -39 52 -29 107 -74 177 -144 57
-56 103 -98 103 -94 0 13 -49 83 -83 120 -18 18 -65 60 -105 93 -70 57 -72 61
-72 104 0 24 3 44 7 44 3 0 26 -11 50 -25 62 -37 53 -21 -13 21 -84 53 -57 53
32 0 87 -52 76 -33 -26 47 -36 28 -67 52 -69 54 -2 2 -2 5 1 8 3 3 35 -15 72
-40 36 -24 66 -43 66 -41 0 3 -27 25 -60 51 l-59 46 1 54 c1 51 3 53 22 43 12
-6 39 -25 61 -41 31 -23 25 -15 -24 35 -35 36 -62 71 -60 77 12 35 262 -189
336 -300 14 -21 27 -39 30 -39 2 0 -18 41 -44 92 -38 74 -66 111 -138 183 -49
49 -120 110 -157 134 -38 25 -68 48 -68 53 0 12 13 10 40 -9 25 -16 25 -16 8
3 -17 19 -17 21 1 36 17 15 22 15 52 -3 22 -12 3 10 -51 62 -97 92 -66 87 48
-8 59 -49 62 -51 27 -14 -22 24 -68 63 -102 89 -35 25 -61 47 -59 49 1 2 23
-4 47 -12 l44 -15 -49 44 c-27 24 -78 61 -113 82 -134 82 -296 200 -299 218
-2 14 0 16 9 7 18 -18 31 -13 16 6 -11 14 -7 13 21 -4 19 -11 87 -51 150 -88
63 -37 141 -86 172 -108 32 -22 60 -38 63 -35 9 9 -91 84 -229 171 -70 45
-130 87 -133 94 -3 7 -10 10 -16 6 -6 -3 -7 -1 -3 6 6 9 12 9 24 -1 14 -11 13
-7 -2 17 -19 30 -19 30 1 12 19 -16 20 -16 35 0 9 10 15 30 13 45 -3 27 -2 27
23 14 50 -26 153 -107 233 -183 43 -42 82 -73 85 -70 9 9 -146 166 -210 213
-35 26 -61 53 -63 65 -3 19 -1 20 14 8 9 -8 -19 23 -64 68 -45 45 -87 91 -93
103 -11 20 -10 21 12 9 110 -58 349 -252 341 -276 -3 -7 5 -17 16 -23 12 -6
21 -7 21 -1 0 14 -167 198 -187 206 -12 5 -14 9 -5 12 6 3 9 10 6 16 -4 7 28
-22 70 -63 81 -79 97 -83 41 -10 -71 92 -79 105 -62 91 15 -12 17 -11 17 4 0
17 1 17 22 -1 13 -10 -14 19 -60 65 -78 77 -202 224 -202 239 0 3 46 -39 103
-94 56 -55 131 -122 167 -148 53 -39 58 -41 25 -11 -31 28 -35 35 -17 30 15
-4 24 -2 28 9 5 13 9 12 26 -7 10 -12 -9 21 -43 73 -39 60 -111 145 -193 230
-72 74 -142 151 -154 170 -17 26 -10 20 28 -20 45 -48 50 -50 34 -21 -11 19
-48 64 -83 99 -63 64 -122 167 -136 237 l-6 30 23 -29 c13 -16 37 -47 53 -69
17 -22 37 -43 45 -47 8 -4 35 -16 60 -29 l45 -22 -71 68 c-60 59 -164 205
-164 232 0 18 45 21 55 5 38 -63 72 -108 85 -114 8 -4 25 -12 38 -19 15 -7 22
-8 22 -1 0 16 -47 60 -65 60 -8 0 -28 21 -44 47 l-30 47 35 39 c19 21 39 49
44 63 14 37 12 120 -4 157 -18 44 -91 105 -133 113 l-34 6 29 18 c42 26 58 77
38 124 -8 20 -26 41 -40 47 -25 12 -25 12 -28 178 l-3 166 33 31 c55 53 39
139 -31 164 l-32 11 30 13 c43 18 92 78 106 128 29 108 -38 222 -147 249 -36
9 -43 14 -30 21 21 12 46 61 46 92 0 34 -44 83 -82 91 l-31 7 7 287 c4 157 10
296 13 309 9 36 20 25 28 -25 26 -175 116 -437 217 -628 225 -429 619 -784
1069 -966 182 -73 423 -133 579 -144 47 -3 108 -8 137 -11 l52 -5 -32 -29
c-25 -23 -32 -36 -32 -68 0 -43 23 -78 60 -92 l20 -8 -20 -6 c-123 -40 -184
-158 -141 -271 22 -56 86 -113 138 -121 l38 -7 0 -173 0 -173 -41 -11 c-22 -6
-58 -27 -79 -46 -108 -97 -87 -264 41 -328 l49 -24 -52 -18 c-72 -24 -149
-101 -173 -173 -22 -67 -16 -160 13 -216 38 -74 144 -153 207 -155 12 -1 5 -6
-19 -15 -105 -37 -164 -168 -122 -268 7 -18 28 -48 47 -66 l33 -33 -20 -37
c-10 -20 -34 -43 -52 -52 -31 -14 -51 -34 -52 -50 0 -4 16 -1 36 6 27 9 46 26
71 66 18 30 38 54 43 53 6 -1 17 -2 25 -2 8 -1 15 -7 15 -12 0 -25 -112 -181
-166 -229 -32 -29 -54 -52 -49 -49 10 4 55 24 90 40 12 5 41 39 65 74 52 76
63 86 54 47 -18 -75 -77 -179 -137 -242 -66 -69 -112 -129 -105 -136 2 -3 21
18 42 45 41 54 56 67 56 51 0 -6 -66 -79 -147 -163 -88 -91 -174 -192 -212
-248 -36 -52 -58 -89 -50 -83 9 7 20 9 24 5 5 -4 6 -2 2 3 -3 6 3 11 13 11 15
0 17 -3 7 -15 -10 -12 -9 -13 13 -1 24 12 24 11 -5 -20 -62 -68 98 63 193 158
50 51 92 90 92 86 0 -15 -157 -199 -224 -261 -39 -37 -62 -60 -51 -52 36 28
45 31 38 13 -5 -14 -3 -16 13 -10 14 5 10 -2 -12 -26 -38 -40 -96 -120 -90
-125 2 -2 34 28 72 67 41 43 71 67 77 61 5 -5 -25 -43 -77 -97 -47 -48 -84
-90 -81 -92 2 -2 -6 -13 -18 -22 -12 -10 -19 -21 -15 -25 3 -4 53 40 110 97
70 71 133 123 196 162 51 32 95 56 98 53 3 -3 -36 -48 -88 -100 -68 -69 -87
-94 -71 -92 12 2 27 6 34 11 8 4 9 3 5 -5 -4 -6 -35 -30 -68 -52 -75 -51 -196
-166 -223 -211 -14 -25 2 -14 70 49 99 90 159 137 220 174 29 17 36 18 26 6
-16 -20 -2 -23 19 -4 12 10 12 9 1 -6 -12 -15 -11 -20 4 -37 15 -16 21 -18 33
-7 13 11 14 9 2 -13 l-13 -25 24 20 c13 11 18 13 11 4 -6 -9 -9 -18 -7 -21 3
-3 -68 -53 -157 -112 -162 -106 -242 -166 -221 -166 6 0 33 15 59 34 27 19
112 72 189 117 77 46 150 89 162 97 19 12 23 11 32 -6 9 -17 -2 -27 -87 -88
-53 -39 -126 -87 -162 -109 -66 -39 -141 -93 -195 -139 l-30 -26 44 15 c24 8
46 14 48 12 2 -2 -29 -29 -69 -60 -40 -30 -84 -68 -98 -83 -14 -15 3 -5 37 22
113 90 134 92 43 4 -55 -53 -73 -75 -51 -62 32 19 36 19 59 4 l24 -16 -24 -19
c-18 -15 -16 -15 15 3 61 36 42 4 -25 -41 -35 -23 -109 -88 -164 -143 -85 -84
-108 -115 -143 -186 -26 -53 -33 -74 -19 -55 35 45 151 176 189 212 36 33 138
103 151 103 20 0 3 -26 -52 -77 -33 -31 -59 -58 -56 -60 2 -2 25 12 51 31 25
20 50 36 53 36 4 0 7 -25 7 -55 0 -43 -4 -58 -20 -69 -41 -29 -98 -76 -91 -76
3 0 29 16 56 36 81 58 68 33 -20 -40 -79 -66 -104 -94 -55 -62 61 40 128 77
132 72 2 -2 -23 -23 -56 -45 -73 -50 -81 -63 -12 -21 26 17 52 30 57 30 5 0
10 -19 12 -43 2 -40 0 -44 -47 -80 -76 -58 -173 -160 -200 -208 -22 -41 -19
-39 50 33 94 97 165 153 257 201 77 41 98 35 32 -9 -43 -28 -54 -42 -19 -24
11 7 22 10 24 8 2 -2 -7 -26 -20 -53 -13 -28 -24 -47 -24 -44 -1 10 -69 -49
-157 -136 -59 -58 -89 -98 -112 -146 -43 -89 -40 -109 3 -32 43 75 158 200
213 231 43 24 57 18 48 -21 -3 -12 -3 -16 0 -9 3 6 10 12 15 12 15 0 -33 -62
-86 -112 -28 -25 -58 -61 -69 -80 -16 -27 -8 -23 45 28 35 34 80 70 99 79 19
10 41 26 48 36 7 11 22 19 33 19 10 0 19 4 19 8 0 5 7 17 15 28 13 18 14 17
15 -19 0 -52 -51 -102 -178 -174 -121 -68 -143 -87 -38 -33 43 22 81 39 83 36
3 -2 -3 -16 -13 -30 -31 -48 -7 -38 37 14 50 59 99 91 99 65 0 -24 -45 -79
-88 -108 -20 -15 -53 -40 -72 -57 l-35 -32 40 26 c46 30 64 34 43 9 -8 -10
-20 -31 -27 -47 -11 -26 -11 -28 4 -16 8 7 36 41 62 76 57 78 78 90 69 38 -5
-26 -24 -52 -69 -96 -34 -33 -48 -51 -32 -40 17 11 41 32 54 46 30 32 37 33
36 3 0 -12 -15 -40 -32 -62 -52 -63 -38 -75 18 -15 46 49 50 51 43 24 -4 -16
-20 -59 -35 -96 -15 -38 -26 -68 -23 -68 3 0 23 37 45 83 22 45 38 71 34 57
-25 -109 -28 -168 -5 -104 15 40 52 110 72 137 l18 22 0 -25 c0 -14 -12 -50
-26 -80 -33 -70 -45 -100 -39 -100 2 0 14 17 25 38 18 32 20 33 15 9 -8 -39
-15 -125 -9 -104 3 10 12 30 21 45 l15 27 -7 -29 c-16 -73 -18 -91 -7 -81 5 6
12 19 15 30 3 11 5 0 6 -24 1 -52 13 -47 35 14 l15 40 1 -50 c0 -27 9 -90 20
-140 l19 -90 -5 80 c-3 44 -7 98 -10 120 -5 47 10 79 26 55 6 -8 13 -26 16
-40 15 -67 56 -190 63 -190 4 0 4 26 -1 57 -15 98 -6 106 32 28 24 -48 35 -64
38 -51 3 15 6 16 13 5 6 -9 7 -2 3 19 -10 51 10 38 41 -28 16 -33 30 -58 33
-56 2 2 -1 13 -7 24 -17 32 -51 122 -46 122 3 0 16 -21 29 -47 l24 -48 22 48
c28 64 36 54 10 -12 -27 -69 -25 -77 6 -18 29 56 39 60 31 11 -6 -33 -5 -35 8
-18 11 15 15 16 15 4 1 -8 17 14 36 50 l35 65 -6 -83 c-4 -45 -4 -82 -2 -82 7
0 55 147 63 192 3 21 12 42 20 49 24 20 27 -15 15 -143 -7 -66 -11 -122 -8
-124 7 -7 37 180 38 237 0 56 2 55 31 -16 l12 -30 6 40 6 40 12 -27 c17 -40
21 -34 11 15 -12 62 -10 67 12 22 l19 -40 -6 40 c-3 22 -10 58 -14 80 -9 41
-7 41 27 -12 7 -10 -1 12 -17 49 -17 37 -30 80 -30 95 1 27 1 28 17 8 8 -11
31 -51 49 -90 l34 -70 -6 55 c-4 30 -11 63 -15 72 -5 9 -9 20 -8 25 0 4 20
-30 44 -77 51 -98 56 -100 19 -9 -15 35 -30 78 -35 94 -7 26 -7 28 5 13 7 -10
17 -18 22 -18 5 0 22 -19 38 -41 15 -22 30 -38 33 -36 6 7 -22 59 -50 93 -15
18 -22 36 -18 46 5 15 11 13 42 -15 20 -17 46 -41 59 -52 l24 -20 -20 25 c-10
14 -40 45 -66 69 -39 36 -48 50 -48 78 0 43 9 38 62 -35 23 -31 53 -68 67 -82
l25 -25 -27 49 c-15 27 -26 50 -24 52 2 2 21 -8 43 -23 l39 -26 -24 26 c-13
15 -45 41 -70 59 -25 17 -56 44 -68 59 -66 80 -19 80 59 -1 55 -56 77 -62 42
-12 l-16 23 39 -16 c21 -9 58 -27 83 -40 71 -39 14 1 -79 55 -113 66 -161 113
-161 160 l0 35 20 -25 c11 -14 20 -21 20 -16 0 6 12 -2 28 -16 15 -14 53 -42
85 -63 31 -20 76 -58 98 -84 22 -25 36 -36 29 -23 -6 13 -49 64 -95 114 -47
50 -82 95 -78 101 3 5 9 3 14 -4 6 -10 9 -6 9 14 0 15 4 27 8 27 40 0 215
-182 260 -271 43 -85 31 -35 -15 60 -20 42 -55 93 -82 120 -60 61 -161 150
-167 148 -3 -1 -19 22 -35 51 -33 57 -32 59 11 37 46 -24 35 -9 -14 20 -80 47
-62 60 21 15 103 -55 170 -108 254 -199 38 -41 69 -71 69 -67 0 33 -91 139
-186 217 -72 58 -74 62 -74 105 0 24 3 44 8 44 4 0 33 -16 65 -35 79 -48 72
-35 -13 21 -39 26 -68 49 -65 52 3 3 40 -16 82 -42 72 -44 76 -45 48 -16 -23
24 -99 86 -144 117 -2 2 -2 5 1 8 3 3 35 -15 72 -40 36 -24 66 -43 66 -41 0 3
-27 26 -60 51 l-60 46 1 54 c2 52 3 54 23 43 11 -6 39 -25 61 -41 30 -23 22
-12 -29 41 -38 40 -66 75 -63 79 23 23 249 -177 335 -296 45 -62 40 -44 -15
57 -55 100 -167 219 -278 296 -38 27 -72 51 -74 53 -2 1 -1 6 2 9 4 4 19 -1
34 -11 28 -18 28 -18 10 2 -16 18 -16 22 -2 33 8 7 12 17 8 23 -7 11 1 7 52
-25 17 -11 -8 17 -55 62 -97 93 -67 89 48 -7 59 -49 62 -51 27 -14 -22 24 -68
63 -102 89 -35 25 -61 47 -59 49 2 2 23 -3 47 -11 l44 -15 -49 43 c-27 24 -88
67 -135 97 -149 92 -278 187 -278 204 0 11 4 12 11 5 17 -17 29 -11 15 7 -11
14 -7 13 21 -4 19 -11 87 -51 150 -88 63 -37 141 -86 172 -108 32 -22 60 -38
63 -35 9 9 -76 73 -212 161 -157 101 -167 108 -171 127 -3 10 3 9 19 -5 l23
-20 -18 30 c-19 30 -19 30 0 13 19 -17 21 -16 37 3 13 15 15 24 7 39 -7 14 -7
21 2 26 7 4 10 4 6 -1 -9 -9 9 -35 24 -35 6 0 4 7 -3 17 -45 54 131 -78 231
-174 44 -41 80 -71 80 -64 0 18 -140 160 -204 208 -34 25 -61 53 -63 65 -3 18
-1 19 14 7 9 -8 -25 28 -75 79 -133 134 -124 141 38 32 98 -67 238 -191 233
-207 -3 -7 5 -17 16 -23 12 -6 21 -7 21 -1 0 14 -167 198 -187 206 -12 5 -14
9 -5 12 6 3 9 10 6 16 -4 7 28 -22 70 -63 42 -41 76 -71 76 -66 0 11 -37 64
-68 98 -14 16 -21 31 -17 39 5 7 4 10 -3 5 -6 -3 -14 -1 -18 5 -4 7 -3 9 4 5
6 -3 14 -1 17 4 5 8 14 5 28 -6 12 -10 -12 16 -53 57 -42 41 -96 99 -121 129
-104 125 -97 129 23 14 99 -96 132 -122 152 -120 14 0 26 4 26 8 0 10 26 3 46
-12 10 -8 -11 28 -47 80 -35 53 -122 155 -194 230 -72 75 -141 151 -154 170
-16 25 -8 19 29 -20 44 -46 49 -50 34 -21 -11 19 -48 63 -83 99 -47 48 -75 88
-103 149 -53 112 -46 137 12 53 38 -54 57 -71 110 -97 l64 -32 -70 67 c-83 80
-175 219 -153 233 26 16 37 9 76 -48 21 -32 47 -59 58 -61 11 -2 28 -11 38
-20 9 -8 17 -11 17 -5 0 18 -27 46 -60 62 -18 9 -42 32 -53 51 l-20 36 36 47
c83 108 54 252 -61 309 l-49 24 47 17 c76 27 124 69 159 138 82 165 -6 358
-184 404 l-30 7 30 11 c154 51 184 271 48 357 -24 15 -59 31 -79 34 l-34 7 2
172 3 171 40 8 c90 19 147 87 153 183 3 48 0 70 -17 102 -24 49 -68 87 -116
103 l-36 12 25 19 c53 42 54 115 2 156 l-25 20 122 12 c167 17 233 28 367 63
153 40 229 68 386 143 326 155 588 376 817 692 70 96 194 327 232 433 50 139
65 186 80 252 9 40 23 103 32 141 8 37 19 67 23 67 10 0 19 -183 23 -425 2
-173 1 -180 -18 -183 -38 -6 -64 -25 -80 -59 -13 -28 -14 -40 -5 -69 7 -19 20
-40 31 -47 25 -16 24 -27 -3 -27 -40 0 -109 -41 -135 -81 -69 -104 -34 -241
75 -299 24 -12 31 -19 19 -20 -31 0 -77 -54 -77 -90 0 -41 24 -87 51 -95 17
-6 19 -12 13 -33 -4 -15 -8 -94 -9 -176 -1 -141 -2 -150 -22 -157 -28 -10 -63
-57 -63 -85 0 -40 19 -73 52 -94 23 -14 27 -20 15 -20 -31 0 -95 -39 -120 -72
-64 -86 -60 -181 10 -259 31 -35 35 -43 25 -63 -6 -13 -23 -32 -38 -43 -41
-28 -74 -61 -74 -74 0 -8 7 -6 18 4 10 10 26 17 35 17 10 0 33 24 53 55 30 47
39 55 57 49 12 -3 24 -8 26 -10 11 -9 -83 -141 -153 -214 -45 -46 -72 -77 -61
-68 11 9 41 26 66 36 37 16 57 35 95 91 27 39 50 65 52 57 2 -8 -11 -50 -29
-93 -25 -59 -48 -94 -94 -143 -76 -79 -127 -149 -119 -162 4 -6 -36 -51 -88
-102 -52 -51 -123 -133 -159 -186 -65 -94 -95 -143 -65 -106 9 11 25 20 36 21
16 1 18 -1 7 -13 -10 -13 -9 -14 13 -2 22 11 20 7 -10 -25 -34 -37 -33 -37 30
11 36 26 110 91 164 144 88 84 96 89 65 46 -19 -28 -79 -97 -134 -155 -55 -57
-95 -101 -88 -98 6 4 15 2 18 -3 5 -8 14 -5 28 7 12 10 8 2 -9 -17 -48 -53
-104 -130 -104 -142 0 -6 24 14 53 46 29 32 65 60 82 65 28 8 24 2 -37 -59
-74 -73 -138 -149 -138 -164 0 -5 9 -1 20 9 11 10 18 20 16 22 -2 3 33 39 77
81 78 72 273 209 284 198 3 -2 -35 -46 -84 -97 -48 -51 -82 -89 -75 -85 7 4
12 2 12 -5 0 -8 4 -8 15 1 9 7 18 11 20 8 3 -2 -23 -24 -58 -48 -89 -62 -188
-152 -226 -205 -18 -25 -30 -45 -27 -45 3 0 25 19 48 43 71 70 192 170 238
196 24 13 40 19 36 12 -10 -15 7 -14 23 2 11 10 12 9 4 -7 -14 -25 14 -57 44
-51 17 3 20 0 16 -12 -4 -11 -2 -14 5 -9 7 4 12 5 12 2 0 -2 -55 -39 -122 -82
-134 -84 -248 -165 -269 -191 -13 -15 -12 -15 11 -3 14 7 45 27 70 45 25 18
77 50 115 73 39 22 106 61 150 87 44 26 74 41 68 34 -18 -18 -16 -34 1 -20 11
10 14 9 12 -4 -3 -18 -92 -85 -241 -178 -107 -68 -210 -146 -202 -153 2 -2 24
3 48 11 39 13 42 13 24 0 -102 -78 -175 -139 -175 -147 0 -5 23 10 51 35 55
48 151 107 114 70 -11 -11 -47 -44 -80 -73 -66 -58 -95 -95 -47 -60 28 21 30
21 50 4 17 -14 19 -21 9 -32 -9 -12 -5 -12 20 2 56 28 28 -6 -40 -49 -97 -62
-244 -216 -295 -309 -42 -76 -53 -114 -17 -59 54 81 294 303 330 303 17 0 -1
-31 -34 -58 -22 -17 -49 -46 -61 -63 -22 -30 -21 -29 31 10 30 23 57 41 60 41
3 0 6 -24 7 -54 l1 -54 -54 -41 c-69 -53 -72 -63 -4 -16 29 20 54 33 58 30 3
-3 1 -9 -5 -13 -28 -18 -144 -116 -140 -119 1 -2 35 15 75 38 39 23 74 40 76
37 3 -3 -24 -24 -60 -47 -79 -51 -85 -62 -12 -21 30 16 57 30 60 30 4 0 7 -20
7 -44 0 -42 -3 -46 -62 -94 -78 -62 -160 -148 -182 -191 -10 -18 -16 -34 -14
-36 2 -2 21 18 44 44 52 63 164 162 212 188 20 11 58 33 85 48 56 32 63 18 9
-21 -49 -37 -64 -52 -29 -30 16 10 31 15 34 13 5 -6 -41 -99 -49 -99 -9 1 -93
-73 -164 -143 -38 -38 -72 -84 -92 -125 -42 -88 -50 -127 -13 -61 61 107 167
223 238 260 29 15 33 14 33 -8 0 -11 5 -21 11 -23 8 -3 6 -10 -5 -20 -9 -9
-16 -20 -16 -24 0 -4 -26 -33 -58 -63 -32 -31 -65 -67 -72 -81 -9 -17 4 -9 41
25 30 28 72 62 94 75 22 13 51 34 64 47 13 12 27 20 32 18 4 -3 15 7 23 22
l15 28 1 -40 c0 -35 -6 -47 -42 -82 -24 -22 -86 -64 -138 -93 -115 -63 -150
-88 -150 -103 0 -6 12 1 27 15 26 24 103 67 159 89 l26 9 -21 -26 c-38 -49
-12 -38 48 19 68 65 102 77 76 28 -8 -17 -33 -45 -56 -63 -23 -18 -58 -48 -78
-67 -34 -31 -34 -32 -4 -12 45 30 47 27 17 -24 -14 -25 -25 -48 -22 -50 2 -2
22 19 43 47 22 28 55 67 72 87 l32 36 1 -37 c0 -32 -7 -42 -57 -87 -32 -27
-55 -52 -53 -55 3 -3 27 16 53 40 45 44 47 45 47 20 0 -14 -16 -46 -35 -72
-19 -25 -35 -50 -35 -55 0 -18 15 -9 35 21 22 33 65 67 65 51 0 -6 -9 -34 -21
-63 -37 -93 -39 -98 -33 -98 3 0 21 34 40 76 20 42 38 74 41 71 2 -3 -1 -15
-7 -27 -6 -11 -13 -42 -16 -68 l-5 -47 36 70 c19 38 42 76 50 85 27 26 18 -28
-15 -98 -35 -75 -38 -89 -9 -47 l21 30 -6 -37 c-3 -21 -8 -55 -11 -75 l-6 -38
15 38 c19 52 30 60 21 17 -4 -19 -9 -46 -11 -60 -3 -24 -3 -23 8 3 l12 28 11
-38 12 -38 13 44 14 44 17 -104 c24 -153 27 -156 26 -29 -2 124 10 154 31 80
43 -149 57 -190 65 -190 5 0 6 22 2 52 -8 61 -8 57 -5 83 1 13 13 -4 31 -45
21 -45 33 -60 38 -51 7 11 11 10 19 -5 9 -15 10 -11 6 21 l-5 40 26 -48 c33
-61 42 -56 15 7 -26 61 -25 82 1 36 l20 -35 -6 30 c-6 29 -6 29 9 10 19 -25
20 -42 4 -48 -10 -4 -10 -6 0 -6 8 -1 21 17 29 39 9 22 20 40 25 40 5 0 7 -4
4 -8 -2 -4 -14 -32 -25 -61 -24 -60 -13 -62 14 -2 21 47 38 46 25 -2 -8 -28
-8 -30 4 -14 11 13 15 15 19 5 3 -7 18 15 33 49 16 35 32 63 36 63 7 0 2 -74
-8 -123 -3 -15 -1 -27 4 -27 5 0 21 42 36 93 15 50 30 103 34 116 4 13 13 26
21 29 12 4 13 -15 7 -119 -4 -68 -5 -121 -2 -118 7 6 36 179 37 219 l1 35 17
-48 c18 -52 31 -53 32 -3 0 30 1 30 10 7 15 -38 21 -18 9 34 -14 63 -7 67 13
8 18 -56 21 -39 7 37 -12 63 -8 72 15 33 19 -34 15 -18 -19 62 -14 33 -26 71
-26 85 0 23 2 22 26 -14 14 -21 37 -62 51 -92 13 -30 26 -54 28 -54 7 0 -8 87
-21 119 -25 61 -14 47 32 -39 47 -89 48 -86 8 18 -33 85 -31 90 16 42 22 -23
40 -46 40 -51 0 -5 5 -9 10 -9 17 0 11 17 -23 62 -18 24 -34 56 -35 73 l-2 29
43 -42 c23 -23 47 -42 52 -42 5 0 -16 24 -48 53 -47 45 -57 59 -57 87 0 33 0
33 21 14 12 -10 39 -41 60 -69 74 -97 83 -105 51 -42 -17 31 -28 57 -25 57 3
0 19 -9 36 -21 23 -15 19 -10 -11 17 -96 86 -132 125 -132 145 0 17 3 18 20 9
11 -6 44 -35 72 -65 53 -56 74 -65 44 -19 -10 14 -16 27 -14 29 2 2 39 -14 83
-36 100 -48 70 -24 -51 41 -109 59 -164 114 -164 165 0 41 7 45 20 9 6 -14 14
-23 19 -20 5 3 20 -5 33 -17 14 -13 45 -35 70 -50 25 -14 71 -54 103 -89 47
-50 55 -56 39 -28 -10 19 -47 63 -82 97 -35 34 -64 71 -65 82 0 11 -4 18 -8
15 -4 -2 -10 0 -14 6 -3 5 -1 10 4 10 6 0 11 9 11 20 0 27 8 25 64 -11 64 -43
153 -144 198 -226 50 -91 49 -56 -2 44 -28 57 -57 95 -102 139 -91 85 -158
142 -158 135 0 -3 -12 16 -26 43 -13 27 -23 51 -20 53 2 3 15 0 28 -6 20 -10
20 -10 4 1 -81 56 -89 80 -13 42 102 -52 210 -138 290 -230 51 -60 65 -51 18
12 -31 43 -136 145 -193 188 -34 25 -38 33 -38 72 0 24 3 44 8 44 4 0 31 -14
60 -30 66 -36 52 -16 -17 25 -28 17 -51 34 -51 38 0 8 76 -31 140 -72 48 -30
4 14 -81 80 -43 35 -79 64 -79 66 0 7 65 -30 98 -55 17 -13 32 -22 32 -19 0 4
-25 25 -55 48 l-55 41 3 54 c1 30 4 54 7 54 9 0 53 -31 84 -59 25 -23 27 -23
18 -5 -6 12 -34 42 -62 67 -46 42 -62 67 -42 67 5 0 40 -22 78 -49 68 -48 190
-174 252 -260 45 -62 40 -43 -15 57 -57 104 -162 218 -280 304 -87 63 -110 92
-45 57 33 -19 35 -19 14 -2 l-24 19 25 17 c22 14 26 14 46 0 12 -8 24 -13 27
-10 3 2 -31 35 -75 73 -43 38 -77 71 -75 73 5 6 99 -56 120 -80 21 -24 60 -48
50 -31 -7 11 -133 114 -176 144 -24 17 -23 17 19 3 24 -8 48 -15 53 -15 18 0
-86 80 -177 137 -143 89 -286 193 -279 204 3 6 10 6 17 1 7 -5 21 -8 31 -6 19
3 249 -126 316 -177 19 -14 46 -31 60 -38 60 -28 -80 80 -212 165 -79 50 -143
97 -144 105 -1 23 6 29 24 21 12 -6 22 -3 34 9 15 16 15 19 0 41 -15 23 -15
23 4 5 26 -22 41 -22 23 0 -13 15 -12 15 16 0 47 -24 142 -99 225 -176 41 -39
76 -71 78 -71 1 0 -2 9 -7 19 -24 43 -121 137 -214 207 -55 41 -95 74 -89 74
6 0 14 -5 17 -11 4 -6 14 -8 22 -5 9 4 22 1 31 -6 8 -7 -31 33 -88 90 -56 56
-100 105 -97 108 11 12 211 -128 287 -201 43 -41 76 -76 74 -78 -2 -2 5 -12
16 -22 11 -10 23 -16 26 -13 7 8 -98 132 -154 184 -37 32 -42 42 -30 47 12 4
35 -13 77 -59 33 -35 63 -64 66 -64 8 0 -53 87 -94 135 -20 22 -25 31 -12 20
l24 -20 -6 23 c-5 20 -3 22 11 11 9 -7 -18 23 -60 67 -72 74 -190 215 -185
221 2 1 45 -39 98 -90 105 -102 254 -223 189 -153 -23 25 -29 35 -16 30 15 -6
17 -4 11 6 -5 9 -4 11 3 6 98 -60 -23 117 -216 317 -79 82 -141 151 -138 154
3 3 17 -9 32 -26 14 -17 35 -42 46 -54 19 -22 19 -22 1 12 -10 19 -48 67 -85
106 -61 65 -101 130 -137 222 -25 62 -5 54 44 -19 41 -59 58 -76 92 -88 23 -8
54 -26 70 -40 15 -13 -9 14 -54 60 -68 71 -172 216 -161 225 2 1 13 7 24 13
20 10 25 6 55 -46 20 -33 42 -58 54 -60 11 -2 28 -11 38 -20 14 -12 17 -13 17
-1 0 23 -17 42 -51 58 -18 9 -44 31 -56 50 l-23 34 35 38 c39 44 59 105 50
158 -13 79 -79 154 -147 168 l-27 5 35 33 c28 26 34 40 34 72 0 46 -32 88 -74
99 l-26 6 0 138 c0 166 5 200 32 200 84 0 130 110 71 169 l-28 27 47 12 c65
15 104 47 135 109 21 45 25 62 20 106 -8 63 -48 124 -100 152 -20 11 -37 22
-37 25 0 3 13 12 29 21 41 24 57 76 37 123 -8 20 -26 41 -39 47 l-24 11 -7
281 c-4 155 -10 292 -13 304 -4 18 2 25 30 37 42 17 57 41 57 94 0 29 -7 46
-26 66 -15 14 -33 26 -41 26 -12 0 -12 3 1 16 20 20 20 48 1 64 -8 7 -15 27
-15 46 0 18 -4 36 -10 39 -5 3 -10 25 -10 48 0 78 -30 291 -56 397 -59 241
-166 484 -304 689 -97 144 -277 343 -406 449 -92 76 -244 182 -260 182 -5 0
-27 12 -48 26 -81 55 -234 123 -403 179 -127 42 -415 95 -516 95 l-42 0 39 26
c42 29 86 109 86 159 0 90 -61 175 -143 197 -55 14 -58 -7 28 213 117 297 145
421 145 641 0 218 -69 414 -166 475 -41 25 -109 25 -152 -1z m154 -18 c80 -58
141 -223 151 -403 11 -207 -24 -380 -136 -667 -37 -97 -71 -186 -75 -197 -6
-16 -9 -17 -16 -5 -21 33 -190 560 -200 625 -17 105 -14 316 5 410 17 84 54
176 83 209 55 62 127 72 188 28z m-7 -2092 c32 -16 105 -84 142 -131 29 -37
29 -39 14 -63 -9 -14 -15 -39 -13 -56 3 -28 -3 -37 -48 -74 -28 -22 -82 -68
-118 -100 l-67 -59 -47 45 c-26 24 -69 62 -95 83 -42 33 -47 42 -42 66 4 17 0
40 -10 59 -16 31 -16 32 26 86 23 30 66 77 96 104 30 28 51 50 46 50 -17 0
-84 -63 -140 -133 -57 -70 -59 -72 -99 -69 -27 2 -45 -2 -53 -12 -11 -13 -24
-9 -100 29 -48 25 -114 51 -146 58 -33 7 -55 16 -49 19 41 25 301 92 429 111
59 9 250 0 274 -13z m196 5 c121 -18 327 -74 319 -86 -3 -5 -13 -9 -23 -9 -10
0 -59 -20 -110 -45 -88 -43 -93 -44 -116 -29 -16 11 -36 14 -57 11 -30 -6 -36
-2 -72 44 -21 28 -61 68 -88 90 l-50 39 49 0 c26 0 93 -7 148 -15z m400 -126
c40 -35 85 -124 111 -217 17 -62 17 -63 -4 -78 -12 -8 -25 -29 -30 -46 -7 -29
-14 -33 -132 -72 l-125 -41 -68 135 c-66 133 -67 135 -51 163 10 18 14 40 10
58 -5 28 -2 31 67 66 74 37 139 61 169 62 10 1 33 -13 53 -30z m200 -81 c129
-76 323 -220 333 -248 1 -4 -20 -3 -48 2 -32 6 -85 5 -146 -2 l-96 -10 -20 25
c-10 13 -33 28 -50 33 -29 7 -34 15 -53 77 -23 76 -67 169 -93 198 -14 16 -6
14 43 -8 33 -14 92 -44 130 -67z m-1411 61 c35 -12 90 -36 122 -54 55 -30 59
-34 56 -64 -2 -18 3 -43 12 -56 15 -22 13 -29 -42 -139 -48 -98 -60 -115 -77
-111 -11 2 -77 23 -147 47 -121 41 -128 44 -128 70 0 18 -10 34 -30 50 l-30
24 15 52 c25 83 54 145 83 175 32 34 76 35 166 6z m-214 -56 c-16 -31 -36 -85
-46 -120 -13 -50 -21 -63 -36 -63 -11 0 -34 -14 -51 -31 -30 -31 -33 -31 -102
-27 -38 3 -95 2 -125 -2 -30 -4 -56 -6 -58 -5 -5 5 151 130 217 174 49 33 217
130 228 131 1 0 -11 -26 -27 -57z m1071 -119 c27 5 30 2 95 -129 37 -74 65
-136 63 -138 -2 -1 -43 -21 -90 -44 -47 -24 -103 -58 -125 -76 -52 -45 -73
-38 -124 42 -23 35 -63 87 -90 115 l-49 52 42 41 c23 22 75 68 116 101 l73 61
31 -15 c17 -9 41 -14 58 -10z m-489 -41 c71 -57 148 -127 148 -134 0 -4 -19
-29 -41 -55 -23 -27 -57 -72 -76 -100 -45 -67 -64 -72 -128 -30 -27 19 -76 46
-108 62 -33 16 -57 35 -57 44 0 8 24 60 53 115 l52 100 47 5 c26 3 50 9 54 13
12 11 19 9 56 -20z m-754 -99 c13 -4 22 -14 22 -26 0 -10 12 -30 26 -43 l26
-24 -11 -132 c-6 -73 -11 -142 -11 -153 0 -21 -7 -23 -126 -33 l-126 -12 -25
30 c-14 17 -35 29 -48 29 -21 0 -25 6 -31 48 -5 26 -8 91 -8 144 -1 111 14
144 75 165 36 12 198 17 237 7z m2142 -22 c47 -23 59 -62 59 -190 l1 -103 -34
-14 c-19 -8 -42 -26 -52 -39 -18 -25 -21 -25 -84 -16 -36 5 -104 10 -151 10
l-86 0 -7 98 c-4 53 -9 113 -12 132 -5 31 -3 37 20 48 16 7 28 23 34 44 10 40
29 45 177 47 77 1 108 -3 135 -17z m-1782 -69 c93 -32 103 -38 98 -57 -2 -12
-16 -59 -30 -105 -14 -46 -26 -96 -26 -112 0 -19 -7 -32 -22 -40 -13 -7 -26
-16 -30 -22 -4 -7 -26 -6 -65 1 -32 7 -94 15 -137 19 l-79 6 6 136 c3 75 9
144 12 153 4 9 20 21 37 27 17 6 37 20 45 30 16 23 31 20 191 -36z m632 -39
c33 -42 69 -93 80 -114 17 -34 18 -39 4 -51 -9 -8 -14 -27 -13 -53 1 -23 -4
-52 -11 -66 -8 -14 -30 -68 -50 -120 -28 -73 -41 -96 -56 -98 -16 -2 -23 6
-33 39 -7 23 -36 88 -65 144 -39 77 -50 108 -44 124 9 25 -5 67 -24 73 -10 4
-10 10 -2 29 19 40 134 180 144 174 5 -3 36 -39 70 -81z m690 57 c5 -11 25
-25 44 -32 38 -14 35 -2 52 -195 l6 -71 -84 -6 c-46 -3 -105 -11 -130 -17 -63
-16 -84 -4 -92 54 -4 24 -18 79 -31 122 -13 43 -20 83 -16 87 9 9 207 75 228
76 7 1 17 -8 23 -18z m-2007 -73 c-2 -46 0 -112 5 -148 9 -61 8 -65 -14 -83
-13 -10 -27 -32 -31 -48 -7 -27 -17 -33 -106 -63 -94 -32 -185 -81 -173 -93 3
-4 14 1 23 9 29 25 93 54 171 78 l73 22 27 -25 c15 -14 38 -27 51 -29 20 -3
27 -17 57 -113 19 -60 37 -117 40 -126 4 -11 -28 -32 -130 -83 -119 -59 -138
-66 -158 -55 -12 7 -38 12 -58 13 -34 1 -37 4 -78 87 -51 100 -62 155 -38 191
9 13 13 27 10 31 -8 8 83 189 141 277 41 63 181 240 190 240 2 0 1 -37 -2 -82z
m2658 -72 c70 -93 194 -305 172 -294 -66 33 -129 58 -175 72 -46 13 -58 21
-58 37 0 11 -13 34 -29 50 -29 28 -29 30 -28 136 1 60 -3 119 -7 133 -10 29
50 -35 125 -134z m-1726 14 c75 -45 80 -51 77 -80 -1 -17 3 -41 9 -52 17 -32
18 -349 1 -356 -7 -2 -48 29 -90 70 -42 41 -93 86 -113 101 -28 21 -35 32 -32
52 4 17 -3 31 -22 49 -25 23 -27 30 -20 73 4 27 18 83 32 126 25 75 27 78 52
72 14 -3 62 -28 106 -55z m819 13 c14 -43 45 -169 46 -184 0 -3 -11 -11 -25
-17 -13 -6 -27 -23 -31 -37 -8 -34 -224 -251 -245 -247 -14 2 -17 25 -21 140
-5 124 -4 139 13 158 22 23 24 46 8 76 -9 17 -7 24 17 44 33 27 193 113 211
114 6 0 18 -21 27 -47z m-588 -266 c52 -102 75 -167 77 -215 2 -46 5 -44 -69
-56 -18 -3 -43 -8 -58 -12 -22 -5 -26 -3 -26 15 0 11 -8 25 -19 30 -15 9 -20
27 -25 109 -4 54 -4 126 0 160 6 56 9 61 33 64 32 4 43 -8 87 -95z m939 1 c-7
-88 -24 -177 -36 -200 -6 -10 -18 -18 -29 -18 -10 0 -28 -13 -39 -28 -12 -18
-37 -33 -63 -41 -24 -7 -80 -30 -124 -51 -73 -33 -84 -36 -97 -23 -13 13 -12
22 14 79 16 35 40 100 53 145 15 53 30 85 42 92 26 14 34 27 34 59 0 24 5 28
53 37 67 13 102 18 156 20 l43 1 -7 -72z m294 56 c22 -5 31 -12 31 -26 0 -11
14 -33 30 -48 l31 -29 -37 -113 c-20 -62 -42 -125 -50 -139 l-13 -27 -86 29
c-47 16 -109 32 -138 35 -74 9 -90 32 -71 103 7 29 17 94 20 144 l7 90 123 -7
c67 -3 137 -9 153 -12z m-951 -3 c9 -6 15 -47 19 -138 5 -112 4 -133 -11 -156
-10 -14 -14 -32 -10 -38 5 -9 0 -10 -17 -5 -13 3 -43 9 -66 12 -40 6 -42 8
-36 35 3 17 0 35 -7 44 -14 17 2 74 53 188 29 66 44 78 75 58z m-1064 -58 c4
-27 10 -79 15 -118 8 -57 7 -71 -5 -78 -8 -4 -21 -21 -29 -37 -9 -18 -24 -30
-35 -30 -10 0 -56 -12 -100 -26 -45 -14 -84 -24 -86 -22 -7 7 -74 219 -74 233
0 8 9 19 19 25 11 5 24 25 31 44 11 34 11 34 88 41 42 3 88 7 102 9 70 8 68 9
74 -41z m207 26 c63 -10 67 -12 75 -42 7 -24 18 -34 40 -41 27 -8 34 -17 49
-68 10 -33 35 -95 56 -138 49 -102 40 -112 -57 -71 -64 27 -172 62 -235 75
-14 3 -31 17 -37 31 -7 14 -23 30 -36 35 -20 7 -26 20 -35 73 -6 35 -11 87
-11 116 l0 53 63 -6 c34 -4 92 -11 128 -17z m2191 -65 c57 -29 78 -57 78 -104
0 -45 -31 -137 -73 -215 -30 -57 -34 -60 -65 -57 -19 2 -44 -3 -58 -13 -25
-16 -29 -15 -137 40 -62 32 -112 62 -112 69 0 6 20 73 45 148 41 125 47 138
68 138 14 0 35 13 49 29 l25 28 67 -19 c36 -11 87 -31 113 -44z m-992 -20 c0
-22 -42 -148 -71 -212 -16 -35 -40 -73 -54 -84 -14 -11 -25 -27 -25 -35 0 -14
-4 -13 -22 4 -13 11 -42 33 -66 48 -40 26 -41 29 -26 46 11 12 14 27 10 44 -6
23 6 38 98 131 l104 106 26 -18 c14 -11 26 -24 26 -30z m-862 -110 c53 -51 72
-76 72 -95 0 -14 5 -30 12 -37 6 -6 10 -13 7 -15 -2 -1 -24 -15 -48 -31 l-43
-28 -19 21 c-11 12 -26 21 -34 21 -18 0 -69 98 -101 194 -43 124 -1 116 154
-30z m1985 -64 c24 -69 34 -109 66 -255 6 -27 15 -98 19 -156 l7 -106 -63 68
c-35 37 -84 84 -110 103 -44 32 -47 37 -44 73 2 23 -3 46 -11 57 -13 18 -11
26 19 81 39 71 74 167 74 204 0 38 14 15 43 -69z m-3209 -146 c35 -62 36 -67
20 -85 -11 -12 -15 -30 -12 -54 4 -32 -1 -39 -60 -91 -35 -31 -75 -74 -89 -95
-14 -22 -28 -38 -29 -36 -18 17 51 413 88 510 11 29 11 29 28 -26 10 -31 34
-86 54 -123z m936 74 c113 -37 187 -74 193 -97 3 -12 13 -21 22 -21 13 0 11
-7 -13 -37 -16 -21 -37 -53 -47 -70 l-19 -32 -19 20 c-12 13 -27 19 -39 16
-24 -7 -145 97 -207 177 -70 90 -41 100 129 44z m1570 27 c36 -8 91 -25 122
-36 l57 -21 -30 -61 c-17 -33 -42 -77 -55 -97 -21 -32 -28 -36 -56 -32 -25 4
-36 0 -52 -20 -20 -24 -24 -25 -86 -17 -36 5 -108 6 -161 2 -87 -5 -97 -4
-103 12 -5 14 6 32 43 69 27 28 67 73 89 100 33 42 45 50 73 50 27 1 38 8 54
33 23 38 21 37 105 18z m-1824 -16 c14 -15 27 -20 50 -16 25 4 34 1 47 -21 20
-34 97 -115 159 -168 37 -32 46 -45 41 -62 -5 -21 -11 -22 -102 -22 -53 -1
-115 -5 -139 -9 -25 -5 -45 -5 -48 1 -11 18 -55 28 -74 18 -25 -13 -65 36
-125 152 -52 101 -56 94 61 127 89 25 107 25 130 0z m1618 -5 c8 -20 -24 -64
-113 -156 -37 -40 -73 -68 -84 -68 -11 0 -28 -7 -37 -15 -14 -13 -20 -9 -52
40 -33 50 -34 55 -17 60 11 4 26 19 34 34 15 29 62 56 170 97 72 28 91 29 99
8z m-1835 -100 c17 -37 51 -95 76 -130 39 -54 44 -66 35 -88 -5 -14 -23 -32
-40 -41 -16 -8 -66 -45 -111 -81 l-81 -66 -40 38 c-22 22 -67 72 -101 113 -52
63 -59 76 -49 92 7 10 12 37 12 59 l0 40 132 65 c72 36 133 65 134 65 1 0 16
-30 33 -66z m2352 0 c101 -51 109 -58 107 -83 -1 -15 4 -42 11 -59 13 -31 12
-34 -25 -79 -21 -27 -58 -69 -82 -95 l-44 -47 -62 53 c-34 29 -76 61 -93 71
-48 28 -50 83 -8 155 18 30 42 74 54 98 12 23 24 42 27 42 3 0 55 -25 115 -56z
m348 -228 c73 -60 131 -135 131 -168 0 -33 -39 -95 -92 -149 -80 -78 -88 -82
-126 -63 -19 9 -44 13 -60 10 -23 -5 -31 0 -54 32 -14 20 -58 72 -97 114 l-72
77 83 98 c72 85 86 98 111 95 15 -1 40 4 55 12 32 17 32 17 121 -58z m-3067
36 c31 3 39 -3 92 -67 33 -38 78 -90 102 -115 l43 -45 -66 -75 c-36 -41 -72
-86 -81 -98 -11 -18 -22 -22 -41 -19 -14 3 -41 -1 -60 -9 -42 -18 -55 -10
-158 89 -125 120 -124 159 3 285 83 82 84 82 108 66 15 -9 39 -14 58 -12z
m2346 12 c41 -8 48 -38 14 -63 -80 -56 -259 -131 -288 -121 -10 4 -27 3 -37
-2 -23 -12 -21 -15 -34 57 -6 33 -14 68 -18 78 -6 13 -2 17 18 17 14 0 29 5
32 11 4 6 17 14 29 19 24 10 239 13 284 4z m-1453 -30 c14 -9 32 -13 41 -10
13 5 15 2 10 -16 -4 -13 -9 -43 -12 -68 l-6 -46 -62 2 c-43 1 -85 11 -141 33
-101 41 -125 56 -125 81 0 27 43 36 188 39 61 1 89 -3 107 -15z m1676 -71 c30
-23 65 -54 79 -68 l24 -25 -35 -36 c-19 -19 -65 -56 -102 -82 -59 -40 -71 -45
-87 -34 -24 15 -62 16 -77 1 -7 -7 -26 -3 -64 17 -30 15 -88 39 -129 54 -63
24 -75 32 -78 53 -3 20 2 26 25 32 39 9 183 77 225 106 28 19 48 24 100 24 61
0 69 -3 119 -42z m-2071 7 c23 -23 49 -25 75 -6 16 11 28 8 99 -24 45 -21 100
-44 122 -50 34 -10 41 -17 40 -36 -1 -18 -11 -27 -46 -40 -59 -22 -178 -81
-213 -106 -17 -12 -36 -18 -50 -14 -13 3 -35 -1 -49 -8 -24 -13 -30 -11 -75
19 -26 18 -70 52 -97 77 l-49 44 57 50 c60 51 146 113 159 114 4 0 16 -9 27
-20z m2321 -255 c66 -77 68 -80 53 -103 -9 -14 -14 -39 -12 -60 l3 -37 -124
-62 c-68 -35 -129 -63 -136 -63 -7 0 -22 22 -33 50 -11 27 -40 80 -65 117 -35
56 -43 75 -39 104 3 28 11 39 36 53 18 9 65 45 106 80 l75 63 34 -31 c18 -17
64 -67 102 -111z m-1896 65 c4 -19 10 -52 14 -72 7 -30 6 -38 -5 -38 -8 0 -24
-10 -36 -22 -21 -21 -31 -22 -169 -23 -81 0 -150 2 -152 5 -3 3 -8 16 -12 30
-5 23 0 29 57 62 95 55 198 94 252 93 45 0 46 -1 51 -35z m-1094 -85 c24 -22
61 -53 82 -69 31 -24 37 -34 32 -53 -3 -13 2 -39 11 -58 16 -35 16 -36 -19
-103 -35 -69 -61 -134 -72 -187 -6 -28 -7 -27 -31 30 -43 106 -87 316 -99 475
l-7 85 29 -40 c17 -22 50 -58 74 -80z m482 64 c33 -28 78 -60 99 -72 34 -20
38 -26 38 -61 0 -22 -6 -47 -14 -55 -8 -9 -34 -53 -58 -98 l-44 -81 -114 57
c-113 57 -115 59 -112 90 2 18 -3 43 -12 56 -15 23 -14 26 36 87 56 69 110
128 116 128 2 0 31 -23 65 -51z m1768 38 c13 13 114 -19 212 -69 70 -35 74
-59 12 -70 -65 -11 -253 -9 -261 3 -3 6 -18 9 -33 7 l-27 -4 13 50 c7 28 13
60 13 72 0 21 2 21 30 11 22 -8 33 -8 41 0z m1117 -112 c-8 -98 -67 -377 -87
-413 -5 -10 -14 3 -25 39 -10 30 -33 83 -52 118 -34 61 -34 65 -20 95 8 18 12
42 9 55 -5 18 7 34 65 87 39 35 80 80 92 100 12 19 23 34 25 32 1 -2 -2 -52
-7 -113z m-832 -56 c14 -15 27 -20 53 -17 30 4 37 0 63 -36 44 -61 103 -185
92 -195 -12 -11 -95 -38 -162 -52 -49 -10 -54 -9 -70 11 -11 13 -29 23 -45 23
-20 0 -37 13 -71 57 -34 43 -153 157 -173 165 -1 0 0 11 4 23 5 20 12 22 72
23 36 1 91 4 121 9 88 12 96 11 116 -11z m-1473 -29 c2 -8 -26 -46 -61 -85
-35 -38 -76 -86 -91 -107 -19 -27 -33 -38 -53 -38 -17 0 -34 -10 -47 -26 -19
-25 -25 -26 -74 -21 -47 6 -181 46 -207 62 -10 6 33 99 77 167 22 32 28 36 45
27 25 -14 65 -4 77 19 8 15 27 17 170 17 135 0 161 -2 164 -15z m1127 -20 c22
0 48 -19 123 -92 109 -107 121 -125 102 -151 -13 -18 -16 -18 -91 3 -116 32
-220 78 -238 106 -9 13 -23 24 -32 24 -12 0 -8 10 14 38 17 21 38 54 48 75 17
35 18 36 31 17 9 -12 26 -20 43 -20z m-1006 -39 c20 -29 36 -54 36 -56 0 -1
-9 -5 -21 -8 -11 -3 -23 -14 -25 -25 -10 -35 -250 -135 -266 -110 -12 20 -10
29 19 67 59 79 154 169 172 164 10 -3 25 2 32 10 8 8 15 14 16 13 0 0 17 -25
37 -55z m1941 -58 l35 6 44 -92 c24 -51 47 -107 50 -125 13 -73 -45 -124 -204
-179 l-95 -32 -27 29 c-15 17 -37 30 -50 30 -21 0 -27 13 -63 125 l-40 125
135 68 c125 63 137 67 158 54 14 -9 35 -12 57 -9z m-2737 -46 c61 -31 112 -59
112 -61 0 -2 -8 -21 -17 -42 -9 -22 -31 -86 -49 -144 -29 -95 -34 -105 -60
-112 -16 -4 -36 -17 -45 -30 -17 -22 -17 -22 -79 -5 -82 23 -176 72 -191 99
-22 41 -4 132 45 234 l45 94 39 0 c21 0 47 7 58 15 10 8 21 13 24 12 3 -1 56
-28 118 -60z m947 -49 c52 -33 61 -44 50 -52 -8 -6 -17 -25 -19 -43 -2 -21
-20 -51 -50 -85 -45 -50 -155 -148 -166 -148 -3 0 -13 7 -22 14 -16 12 -17 17
-2 72 17 69 47 152 71 197 13 27 59 81 71 86 2 0 32 -18 67 -41z m698 -7 c25
-10 82 -122 111 -219 13 -45 13 -54 1 -58 -29 -11 -207 139 -224 189 -6 17
-18 38 -27 48 -14 16 -14 18 4 23 10 4 37 19 58 35 37 28 39 29 46 10 4 -11
18 -23 31 -28z m-846 24 c14 -14 13 -22 -10 -73 -27 -60 -61 -165 -72 -219 -4
-22 -13 -33 -30 -37 -17 -4 -27 -16 -33 -39 -7 -29 -13 -33 -63 -44 -30 -6
-83 -12 -118 -12 l-64 -1 7 89 c4 49 12 108 19 132 11 37 18 45 42 49 21 4 34
14 45 37 12 25 26 36 65 48 28 9 82 31 120 50 39 18 71 34 73 34 2 1 10 -6 19
-14z m1023 -41 c47 -18 108 -38 135 -45 38 -9 55 -19 70 -42 11 -17 31 -34 45
-37 28 -7 35 -29 46 -154 l7 -79 -95 6 c-114 8 -171 24 -176 52 -6 30 -22 45
-48 45 -19 0 -25 9 -39 58 -9 31 -33 92 -52 134 -30 65 -34 80 -23 93 8 10 20
13 29 9 9 -4 54 -22 101 -40z m-1610 -19 c41 -14 102 -30 136 -36 54 -9 64
-14 74 -39 9 -21 9 -38 0 -71 -7 -24 -15 -84 -19 -134 l-6 -90 -75 3 c-41 1
-108 5 -148 8 -68 5 -74 8 -83 32 -5 15 -21 37 -36 49 l-26 21 17 64 c24 85
76 218 85 218 4 0 41 -11 81 -25z m2205 -104 l36 -114 -25 -24 c-14 -13 -28
-34 -32 -47 -7 -30 -23 -34 -156 -42 l-108 -7 0 54 c-1 30 -6 83 -13 119 -11
60 -11 67 8 96 15 24 30 34 60 39 22 3 72 17 110 29 39 13 73 20 76 17 4 -3
23 -57 44 -120z m-1228 59 c20 0 21 -3 12 -24 -8 -16 -8 -30 -1 -42 11 -21
-12 -95 -61 -194 -34 -68 -43 -76 -67 -60 -12 7 -14 35 -13 147 0 76 2 152 4
168 l4 31 50 -13 c27 -7 60 -13 72 -13z m246 10 c-3 -11 4 -30 16 -46 19 -24
21 -40 21 -158 0 -72 -4 -136 -8 -142 -4 -6 -17 -14 -29 -18 -18 -6 -26 2 -57
52 -50 83 -99 209 -92 238 4 14 2 33 -4 44 -10 18 -7 20 27 21 21 0 56 6 78
14 54 18 54 18 48 -5z m169 -115 c43 -41 92 -82 108 -92 24 -14 28 -21 23 -44
-4 -22 1 -33 22 -53 26 -24 27 -27 16 -78 -14 -64 -51 -180 -61 -191 -8 -9
-100 35 -167 80 -32 22 -40 32 -33 43 15 23 12 48 -8 68 -15 15 -17 38 -18
174 -1 135 2 158 15 161 9 3 18 5 20 6 2 0 39 -33 83 -74z m-581 55 c5 0 9
-21 9 -47 0 -27 5 -88 10 -136 10 -84 9 -89 -10 -105 -22 -18 -28 -44 -16 -78
5 -18 -2 -27 -48 -58 -30 -20 -83 -50 -118 -66 l-63 -30 -14 32 c-7 18 -22 69
-33 112 l-20 80 26 19 c15 11 26 28 26 42 0 29 207 244 228 239 8 -2 18 -4 23
-4z m259 -77 c7 -21 37 -86 67 -144 34 -67 53 -114 49 -125 -3 -11 1 -32 10
-48 14 -29 13 -32 -20 -80 -20 -28 -53 -71 -75 -96 l-39 -45 -41 45 c-22 25
-62 76 -87 113 -43 63 -45 69 -30 86 19 20 21 52 5 68 -9 9 -6 20 9 45 17 27
57 122 85 201 4 10 17 17 31 17 19 0 27 -8 36 -37z m1539 -69 c-48 -104 -163
-284 -239 -372 -39 -45 -72 -82 -74 -82 -2 0 1 23 6 52 6 33 6 86 -1 149 l-11
98 30 30 c17 16 30 38 30 48 0 15 16 24 73 42 78 25 182 74 192 91 3 5 10 10
15 10 5 0 -5 -29 -21 -66z m-2955 -74 c50 -12 55 -15 61 -46 3 -20 16 -41 30
-50 24 -15 24 -19 18 -107 -3 -53 -1 -108 5 -129 6 -21 8 -38 6 -38 -6 0 -61
63 -115 130 -46 57 -171 260 -183 296 -6 19 -1 18 59 -11 35 -18 89 -38 119
-45z m2075 -20 c29 -5 83 -10 119 -10 l65 0 -6 -122 c-8 -158 -14 -186 -41
-194 -11 -3 -33 -18 -48 -32 l-27 -25 -62 18 c-35 9 -98 31 -142 47 -63 24
-77 33 -71 47 19 46 56 170 61 208 3 24 11 43 18 43 6 0 20 9 30 20 10 11 25
18 34 15 9 -2 40 -9 70 -15z m520 -55 c25 -5 29 -12 35 -52 10 -72 7 -217 -5
-251 -6 -19 -23 -36 -44 -47 -44 -20 -144 -29 -214 -18 -51 8 -55 10 -63 41
-5 20 -18 37 -33 44 -19 8 -23 16 -19 34 3 13 9 83 12 156 l7 133 114 7 c62 4
119 9 125 11 6 3 21 -8 34 -24 12 -15 35 -30 51 -34z m-1780 18 c17 -10 31
-25 31 -34 0 -16 41 -164 55 -200 5 -13 -15 -23 -103 -53 -61 -20 -116 -36
-124 -36 -8 0 -25 11 -38 25 -13 14 -33 25 -45 25 -27 0 -31 16 -41 157 l-7
101 69 7 c38 3 87 10 109 15 59 12 61 12 94 -7z m-386 -9 l107 -7 1 -66 c0
-36 4 -93 8 -126 7 -57 6 -60 -21 -83 -16 -13 -28 -34 -28 -47 0 -26 -19 -32
-145 -41 -101 -8 -179 8 -201 41 -22 34 -35 140 -27 215 8 61 10 65 36 68 17
2 36 15 50 34 20 27 26 29 67 24 25 -3 93 -9 153 -12z m837 -173 c22 -34 61
-85 87 -112 l46 -49 -24 -27 c-13 -14 -64 -59 -113 -100 -63 -53 -93 -72 -105
-67 -9 4 -36 10 -61 13 l-45 6 -56 110 c-82 159 -83 144 14 194 46 23 99 55
118 71 25 21 43 28 67 26 27 -3 38 -12 72 -65z m423 6 c36 -24 84 -51 106 -62
49 -22 50 -20 -22 -157 -48 -91 -52 -96 -78 -91 -14 3 -39 -2 -56 -11 -30 -15
-30 -15 -98 42 -37 31 -81 68 -99 82 l-31 24 25 -28 c14 -16 57 -54 96 -86 67
-55 70 -60 66 -94 -3 -22 2 -45 11 -60 15 -22 14 -25 -15 -62 -46 -58 -130
-144 -153 -156 -10 -6 -36 -12 -57 -14 -47 -4 -111 38 -181 118 l-48 56 16 32
c10 19 14 42 10 58 -5 25 3 34 86 102 105 86 202 188 262 277 29 42 50 63 67
66 14 2 25 5 26 6 1 0 31 -18 67 -42z m-711 -224 c63 -128 66 -137 51 -159 -8
-13 -13 -38 -11 -56 3 -32 1 -34 -83 -77 -105 -53 -162 -62 -202 -31 -39 31
-75 97 -107 197 l-28 86 28 24 c16 13 30 35 32 50 3 23 12 28 85 49 45 13 97
30 115 38 18 8 38 15 43 15 6 0 40 -61 77 -136z m928 115 c30 -11 95 -33 145
-48 81 -25 90 -30 97 -56 4 -16 19 -38 32 -49 l25 -20 -29 -87 c-36 -105 -66
-154 -103 -167 -42 -15 -119 3 -223 53 l-91 44 1 41 c0 25 -5 47 -16 57 -15
15 -13 21 22 83 20 36 48 90 60 119 12 28 23 52 24 52 0 0 26 -10 56 -22z
m-1393 -118 c14 -17 35 -30 47 -30 20 0 27 -13 55 -97 17 -53 45 -118 61 -145
16 -26 28 -48 26 -48 -2 0 -30 12 -62 27 -105 47 -287 165 -369 238 l-80 71
90 -4 c70 -3 174 6 203 17 2 0 15 -12 29 -29z m2063 16 c0 -3 -40 -39 -89 -80
-81 -68 -293 -206 -342 -221 -19 -6 -19 -5 4 42 14 27 35 81 47 121 19 62 25
72 45 72 13 0 34 12 47 29 24 28 25 28 119 24 76 -4 123 0 167 16 1 1 2 -1 2
-3z m-736 -281 c48 -24 113 -49 143 -56 l56 -11 -59 -25 c-33 -13 -86 -31
-119 -38 -188 -43 -250 -54 -340 -61 l-100 -7 45 35 c25 18 73 67 107 108 57
68 66 75 96 72 17 -2 41 4 52 12 11 9 22 15 25 16 3 0 45 -20 94 -45z m-736
-14 c38 3 43 0 85 -51 43 -52 85 -89 132 -117 19 -12 18 -12 -10 -13 -96 -1
-462 68 -506 96 -7 4 13 15 47 25 32 11 86 34 119 53 53 30 62 32 77 19 10 -9
32 -14 56 -12z m2074 -1538 c-16 -21 -40 -47 -53 -58 l-24 -20 15 20 c17 25
83 95 88 95 2 0 -10 -17 -26 -37z m205 -135 c-2 -13 -4 -3 -4 22 0 25 2 35 4
23 2 -13 2 -33 0 -45z m30 0 c-2 -13 -4 -3 -4 22 0 25 2 35 4 23 2 -13 2 -33
0 -45z m-4040 -10 c-2 -13 -4 -5 -4 17 -1 22 1 32 4 23 2 -10 2 -28 0 -40z
m30 -15 c-2 -16 -4 -5 -4 22 0 28 2 40 4 28 2 -13 2 -35 0 -50z m3889 -78
c-12 -39 -26 -61 -50 -80 -18 -14 -36 -25 -39 -25 -3 0 12 30 34 67 21 37 44
83 51 103 20 57 23 1 4 -65z m297 -104 c-1 -2 -18 8 -37 23 -36 27 -51 62 -62
141 -4 35 1 28 48 -60 30 -55 52 -102 51 -104z m-4304 107 c-10 -53 -18 -69
-52 -101 -22 -20 -42 -36 -43 -34 -2 1 20 48 49 104 28 56 53 100 55 98 2 -2
-2 -32 -9 -67z m248 -40 l51 -97 -39 26 c-27 17 -42 37 -49 62 -13 45 -24 118
-18 111 3 -3 28 -49 55 -102z m3845 37 c-2 -14 -6 -25 -8 -25 -2 0 -4 11 -4
25 0 14 4 25 9 25 4 0 6 -11 3 -25z m45 -12 c-3 -10 -5 -4 -5 12 0 17 2 24 5
18 2 -7 2 -21 0 -30z m-4060 -20 c-3 -10 -5 -4 -5 12 0 17 2 24 5 18 2 -7 2
-21 0 -30z m52 4 c0 -21 -1 -21 -9 -2 -12 28 -12 37 0 30 6 -3 10 -16 9 -28z
m3952 -137 c-9 -23 -10 -21 -10 15 -1 22 3 51 7 65 6 22 7 20 10 -15 2 -23 -1
-52 -7 -65z m69 30 c0 -33 -3 -41 -10 -30 -5 8 -10 35 -10 60 0 33 3 41 10 30
5 -8 10 -35 10 -60z m-4079 -41 c-9 -32 -9 -31 -10 22 -1 31 2 59 7 63 11 12
14 -48 3 -85z m68 1 c0 -26 -2 -31 -9 -20 -5 8 -9 38 -9 65 1 44 2 46 9 20 4
-16 8 -46 9 -65z m3809 28 c-16 -29 -47 -59 -98 -94 -41 -29 -77 -51 -79 -49
-7 7 114 138 149 161 50 33 55 30 28 -18z m357 15 c22 -15 49 -38 60 -52 11
-15 37 -45 59 -68 21 -24 35 -43 31 -43 -4 0 -43 25 -86 56 -54 38 -86 68 -99
95 -24 46 -18 48 35 12z m-4367 -35 c-16 -29 -48 -60 -98 -95 -41 -29 -79 -52
-83 -53 -15 0 107 130 148 160 54 40 60 37 33 -12z m352 16 c42 -28 167 -174
134 -156 -61 32 -146 106 -164 142 -11 22 -18 40 -15 40 3 0 23 -12 45 -26z
m3794 -116 c-8 -92 -14 -128 -22 -128 -10 0 -2 138 9 168 15 38 19 25 13 -40z
m70 30 c3 -18 7 -62 10 -98 5 -59 4 -63 -9 -46 -10 13 -15 43 -15 82 0 34 -3
69 -6 78 -3 9 -1 16 4 16 6 0 13 -15 16 -32z m-4084 -70 c-3 -46 -11 -92 -18
-103 -10 -17 -11 -6 -6 60 6 94 12 125 22 125 4 0 5 -37 2 -82z m79 -24 c4
-49 7 -91 5 -92 -9 -12 -22 45 -27 117 -9 116 11 93 22 -25z m3931 -98 c0 -13
-9 -34 -20 -47 l-20 -24 7 35 c5 32 19 60 29 60 2 0 4 -11 4 -24z m95 -27 c4
-17 5 -33 2 -36 -7 -7 -37 52 -37 73 0 27 28 -2 35 -37z m-4120 -28 c-8 -17
-18 -31 -22 -31 -9 0 6 62 20 78 20 24 22 -10 2 -47z m105 5 c4 -20 5 -36 1
-36 -11 0 -31 47 -31 72 0 32 20 8 30 -36z m310 9 c7 -8 8 -15 2 -15 -5 0 -15
7 -22 15 -7 8 -8 15 -2 15 5 0 15 -7 22 -15z m3880 -141 c0 -2 -9 0 -20 6 -11
6 -20 13 -20 16 0 2 9 0 20 -6 11 -6 20 -13 20 -16z m-680 -629 c0 -2 -14 -12
-31 -21 -17 -8 -28 -11 -24 -4 4 6 17 15 29 20 27 11 26 11 26 5z m947 -29
c18 -21 18 -21 -3 -3 -11 9 -23 14 -26 11 -3 -3 -8 -1 -12 4 -11 18 25 8 41
-12z m-4987 -4 c0 -4 -10 -13 -22 -21 -23 -14 -23 -14 -4 8 20 22 26 25 26 13z
m5100 -133 c0 -18 -21 3 -59 58 l-33 48 46 -47 c25 -26 46 -52 46 -59z m-4024
-4 c14 -27 12 -27 -21 10 -50 55 -67 89 -25 50 17 -16 38 -43 46 -60z m2834
45 c-17 -22 -34 -40 -36 -40 -8 0 13 34 36 58 34 36 34 25 0 -18z m-4011 -20
c-33 -41 -39 -46 -39 -32 0 9 56 72 65 72 3 0 -9 -18 -26 -40z m4146 -210 c-3
-5 -12 -10 -18 -10 -7 0 -6 4 3 10 19 12 23 12 15 0z m-4010 -20 c-3 -5 -12
-10 -18 -10 -7 0 -6 4 3 10 19 12 23 12 15 0z m905 -16 c0 -2 -9 0 -20 6 -11
6 -20 13 -20 16 0 2 9 0 20 -6 11 -6 20 -13 20 -16z m1537 -31 c-3 -10 -5 -2
-5 17 0 19 2 27 5 18 2 -10 2 -26 0 -35z m30 -20 c-2 -16 -4 -5 -4 22 0 28 2
40 4 28 2 -13 2 -35 0 -50z m1527 33 c-6 -16 -34 -29 -43 -20 -6 6 27 34 41
34 4 0 5 -6 2 -14z m938 -10 c14 -21 8 -26 -17 -14 -28 13 -35 41 -7 31 9 -4
20 -11 24 -17z m-4952 -10 c0 -15 -29 -30 -39 -20 -3 3 3 12 13 20 24 17 26
17 26 0z m931 -7 c11 -11 18 -23 16 -26 -7 -6 -57 27 -57 38 0 15 19 10 41
-12z m1434 -87 c-14 -59 -22 -75 -50 -96 -19 -14 -36 -26 -38 -26 -3 0 18 45
46 99 29 55 53 98 55 96 2 -1 -4 -34 -13 -73z m253 -35 l51 -97 -40 27 c-39
28 -51 53 -74 158 -9 44 5 24 63 -88z m-179 -1 c-9 -8 -10 -7 -5 7 3 10 7 24
7 30 1 7 3 4 6 -7 3 -10 -1 -23 -8 -30z m61 11 c0 -18 -2 -19 -10 -7 -13 20
-13 43 0 35 6 -3 10 -16 10 -28z m1510 6 c0 -10 -18 -33 -40 -51 -39 -33 -40
-33 -40 -9 0 26 16 49 45 65 28 16 35 15 35 -5z m948 -3 c17 -11 32 -26 32
-34 0 -8 3 -21 6 -30 3 -9 2 -16 -2 -16 -15 0 -84 71 -84 86 0 19 9 18 48 -6z
m-4958 -13 c0 -15 -13 -32 -52 -66 l-28 -24 0 31 c0 26 7 36 33 52 38 23 47
25 47 7z m956 -14 c21 -13 39 -73 23 -73 -18 0 -79 63 -79 81 0 20 16 18 56
-8z m1489 -98 c-3 -25 -9 -46 -13 -49 -8 -5 -4 81 5 104 10 27 16 -8 8 -55z
m55 43 c0 -13 3 -41 6 -63 4 -27 2 -35 -4 -25 -15 24 -25 110 -13 110 6 0 11
-10 11 -22z m-197 -63 c-12 -26 -41 -53 -96 -91 -43 -30 -81 -54 -84 -54 -2 0
16 24 41 52 25 29 46 56 46 60 0 9 102 79 107 74 2 -2 -4 -20 -14 -41z m357
19 c42 -28 167 -174 134 -156 -51 27 -147 106 -164 135 -34 55 -28 59 30 21z
m1340 -58 c0 -3 -4 -8 -10 -11 -5 -3 -10 -1 -10 4 0 6 5 11 10 11 6 0 10 -2
10 -4z m940 -6 c0 -5 -2 -10 -4 -10 -3 0 -8 5 -11 10 -3 6 -1 10 4 10 6 0 11
-4 11 -10z m-4950 -14 c0 -3 -4 -8 -10 -11 -5 -3 -10 -1 -10 4 0 6 5 11 10 11
6 0 10 -2 10 -4z m940 -6 c0 -5 -2 -10 -4 -10 -3 0 -8 5 -11 10 -3 6 -1 10 4
10 6 0 11 -4 11 -10z m1505 -137 c-3 -18 -11 -35 -17 -39 -11 -7 -3 132 10
171 9 26 15 -89 7 -132z m82 45 c5 -49 6 -88 2 -88 -11 0 -17 26 -24 115 -5
54 -3 77 3 70 6 -5 14 -49 19 -97z m-77 -108 c0 -6 -7 -27 -17 -48 -12 -28
-17 -33 -20 -19 -5 21 15 77 28 77 5 0 9 -5 9 -10z m90 -44 c9 -40 4 -45 -16
-18 -16 21 -19 81 -3 65 6 -6 14 -27 19 -47z m1602 12 c-7 -7 -12 -8 -12 -2 0
14 12 26 19 19 2 -3 -1 -11 -7 -17z m666 -3 c-3 -3 -9 2 -12 12 -6 14 -5 15 5
6 7 -7 10 -15 7 -18z m-1952 -13 c-4 -3 -14 2 -24 12 -16 18 -16 18 6 6 13 -6
21 -14 18 -18z m-2723 3 c-3 -9 -8 -14 -10 -11 -3 3 -2 9 2 15 9 16 15 13 8
-4z m667 -6 c0 -6 -4 -7 -10 -4 -5 3 -10 11 -10 16 0 6 5 7 10 4 6 -3 10 -11
10 -16z m3377 -46 c-3 -10 -5 -2 -5 17 0 19 2 27 5 18 2 -10 2 -26 0 -35z
m590 0 c-3 -10 -5 -2 -5 17 0 19 2 27 5 18 2 -10 2 -26 0 -35z m-4597 -5 c0
-21 -3 -29 -10 -22 -5 5 -7 19 -4 32 9 31 14 27 14 -10z m590 0 c0 -36 -4 -35
-14 5 -4 16 -2 27 4 27 5 0 10 -14 10 -32z m3452 -135 c-3 -16 -7 -22 -10 -15
-4 13 4 42 11 42 2 0 2 -12 -1 -27z m526 -9 c-3 -14 -5 -12 -10 9 -3 19 -2 25
4 19 6 -6 8 -18 6 -28z m-4536 -9 c-2 -14 -8 -25 -13 -25 -12 0 -11 7 1 31 14
26 18 24 12 -6z m525 -17 c-3 -8 -6 -5 -6 6 -1 11 2 17 5 13 3 -3 4 -12 1 -19z
m3760 -170 c-3 -8 -6 -5 -6 6 -1 11 2 17 5 13 3 -3 4 -12 1 -19z m-4014 -30
c-5 -26 -23 -40 -23 -19 0 5 -3 18 -6 28 -5 15 -4 15 5 3 8 -12 11 -12 17 3 9
25 13 17 7 -15z m1597 -333 c0 -2 -10 -9 -22 -15 -22 -11 -22 -10 -4 4 21 17
26 19 26 11z m870 -31 c0 -2 -9 0 -20 6 -11 6 -20 13 -20 16 0 2 9 0 20 -6 11
-6 20 -13 20 -16z m-976 -47 c-22 -23 -51 -58 -66 -77 -15 -19 -27 -30 -28
-23 0 12 117 143 127 143 3 0 -12 -19 -33 -43z m1119 -87 c39 -65 -13 -16 -57
54 l-20 31 30 -27 c16 -15 37 -41 47 -58z m-133 -226 c0 -2 -9 0 -20 6 -11 6
-20 13 -20 16 0 2 9 0 20 -6 11 -6 20 -13 20 -16z m-925 -43 c-3 -6 -15 -16
-26 -22 -18 -9 -19 -9 -10 9 10 19 32 33 40 26 1 -1 0 -7 -4 -13z m926 9 c10
-6 19 -17 19 -26 0 -12 -4 -12 -25 2 -38 25 -34 45 6 24z m-929 -142 c-5 -22
-63 -79 -73 -72 -16 9 6 58 35 75 40 24 45 24 38 -3z m948 7 c28 -15 46 -51
38 -76 -6 -18 -78 49 -78 72 0 23 3 23 40 4z m-960 -195 c0 -5 -5 -10 -11 -10
-5 0 -7 5 -4 10 3 6 8 10 11 10 2 0 4 -4 4 -10z m945 0 c3 -5 1 -10 -4 -10 -6
0 -11 5 -11 10 0 6 2 10 4 10 3 0 8 -4 11 -10z m-808 -252 c-3 -8 -6 -5 -6 6
-1 11 2 17 5 13 3 -3 4 -12 1 -19z m673 1 c0 -5 -4 -9 -10 -9 -5 0 -10 7 -10
16 0 8 5 12 10 9 6 -3 10 -10 10 -16z m-634 -67 c-12 -11 -17 7 -9 34 l8 29 3
-28 c2 -16 1 -31 -2 -35z m594 15 c0 -10 -4 -15 -10 -12 -5 3 -10 18 -10 33 0
21 2 24 10 12 5 -8 10 -23 10 -33z m-31 -167 c0 -10 -3 -8 -9 5 -12 27 -12 43
0 25 5 -8 9 -22 9 -30z m-538 -3 c-8 -8 -11 -7 -11 4 0 20 13 34 18 19 3 -7
-1 -17 -7 -23z m285 -179 c-15 -50 -17 -53 -26 -38 -6 8 -10 22 -10 30 0 12 2
12 9 2 7 -11 9 -11 14 2 7 19 18 22 13 4z"/>
<path d="M6170 4856 c0 -2 8 -10 18 -17 15 -13 16 -12 3 4 -13 16 -21 21 -21
13z"/>
<path d="M1945 4650 c3 -5 11 -10 16 -10 6 0 7 5 4 10 -3 6 -11 10 -16 10 -6
0 -7 -4 -4 -10z"/>
<path d="M3335 3719 c-4 -6 -5 -12 -2 -15 2 -3 7 2 10 11 7 17 1 20 -8 4z"/>
<path d="M4170 3147 c0 -3 17 -17 38 -33 30 -23 33 -24 17 -5 -19 22 -55 46
-55 38z"/>
<path d="M6390 3022 c0 -5 7 -15 15 -22 8 -7 15 -8 15 -2 0 5 -7 15 -15 22 -8
7 -15 8 -15 2z"/>
<path d="M849 3001 c-13 -11 -21 -22 -18 -25 3 -3 16 5 29 19 28 30 22 33 -11
6z"/>
<path d="M2381 2991 c7 -10 21 -23 31 -30 17 -10 16 -8 -3 18 -24 33 -47 43
-28 12z"/>
<path d="M4935 2930 c-10 -11 -16 -22 -13 -25 3 -3 13 6 22 20 20 30 16 32 -9
5z"/>
<path d="M6316 2925 c9 -14 19 -24 21 -21 6 6 -20 46 -30 46 -4 0 0 -11 9 -25z"/>
<path d="M922 2909 c-19 -30 -8 -34 12 -4 9 14 13 25 9 25 -5 0 -14 -9 -21
-21z"/>
<path d="M2299 2912 c6 -12 16 -24 22 -28 8 -4 8 -1 0 14 -6 12 -16 24 -22 28
-8 4 -8 1 0 -14z"/>
<path d="M4970 2822 c-21 -42 -22 -42 -16 -42 8 0 38 61 33 66 -2 2 -10 -8
-17 -24z"/>
<path d="M6270 2845 c0 -2 9 -19 20 -37 23 -39 27 -30 5 12 -14 27 -25 38 -25
25z"/>
<path d="M956 2801 c-23 -43 -20 -52 5 -12 11 18 18 35 15 38 -2 3 -12 -9 -20
-26z"/>
<path d="M2271 2795 c12 -19 23 -35 25 -35 2 0 -4 16 -13 35 -9 19 -20 35 -25
35 -4 0 2 -16 13 -35z"/>
<path d="M3420 2780 c-8 -5 -12 -12 -9 -15 4 -3 12 1 19 10 14 17 11 19 -10 5z"/>
<path d="M5242 2540 c0 -19 2 -27 5 -17 2 9 2 25 0 35 -3 9 -5 1 -5 -18z"/>
<path d="M2003 2515 c0 -22 2 -30 4 -17 2 12 2 30 0 40 -3 9 -5 -1 -4 -23z"/>
<path d="M5382 2400 c0 -14 2 -19 5 -12 2 6 2 18 0 25 -3 6 -5 1 -5 -13z"/>
<path d="M1861 2384 c0 -11 3 -14 6 -6 3 7 2 16 -1 19 -3 4 -6 -2 -5 -13z"/>
<path d="M5871 2384 c0 -11 3 -14 6 -6 3 7 2 16 -1 19 -3 4 -6 -2 -5 -13z"/>
<path d="M2857 1234 c-10 -13 -13 -24 -8 -24 10 0 36 39 29 45 -2 2 -11 -8
-21 -21z"/>
<path d="M4390 1253 c1 -11 21 -35 45 -53 13 -10 10 -2 -9 23 -28 37 -36 44
-36 30z"/>
<path d="M2940 1149 c-16 -30 -8 -31 13 -3 10 13 13 24 8 24 -6 0 -15 -9 -21
-21z"/>
<path d="M4319 1152 c6 -12 16 -24 22 -28 8 -4 8 -1 0 14 -6 12 -16 24 -22 28
-8 4 -8 1 0 -14z"/>
<path d="M2975 1039 c-9 -17 -15 -33 -13 -35 3 -2 12 12 21 31 21 43 13 47 -8
4z"/>
<path d="M4288 1041 c9 -16 18 -28 20 -27 5 6 -21 56 -29 56 -5 0 0 -13 9 -29z"/>
<path d="M4023 750 c0 -25 2 -35 4 -22 2 12 2 32 0 45 -2 12 -4 2 -4 -23z"/>
<path d="M3241 744 c0 -11 3 -14 6 -6 3 7 2 16 -1 19 -3 4 -6 -2 -5 -13z"/>
</g>
</svg>
